<svg width="34" height="34" viewBox="0 0 34 34" fill="none" xmlns="http://www.w3.org/2000/svg">
<rect width="34" height="34" fill="#0C0C0C"/>
<g clip-path="url(#clip0_518_113)">
<path d="M24.7782 9.22183C20.4824 4.92606 13.5176 4.92606 9.22182 9.22183C4.92606 13.5176 4.92606 20.4824 9.22182 24.7782C9.28539 24.8417 9.34971 24.9042 9.41441 24.9658C9.43313 24.9876 9.45242 25.0088 9.47274 25.0291C9.51285 25.0692 9.55619 25.1054 9.60162 25.1394C13.9187 29.0697 20.6066 28.9498 24.7782 24.7782C28.9498 20.6066 29.0702 13.9182 25.1399 9.60113C25.106 9.55573 25.0692 9.51282 25.0291 9.47273C25.0088 9.45243 24.9881 9.43263 24.9663 9.41392C24.9047 9.34921 24.8417 9.28539 24.7782 9.22183ZM24.4694 9.92652C24.5146 9.97575 24.5588 10.0255 24.6023 10.076C24.6901 10.2285 24.7544 10.4981 24.6914 10.9659C24.6129 11.549 24.3513 12.3081 23.8936 13.2016C22.9821 14.9811 21.3685 17.1479 19.2582 19.2582C17.1479 21.3685 14.9811 22.9822 13.2016 23.8936C12.3081 24.3513 11.549 24.6129 10.9659 24.6914C10.4983 24.7544 10.229 24.6896 10.0765 24.6018C10.026 24.5583 9.97624 24.5141 9.92701 24.4689C9.82576 24.3264 9.74097 24.0515 9.81039 23.5359C9.88889 22.9528 10.1506 22.1937 10.6082 21.3002C11.5197 19.5207 13.1333 17.3539 15.2436 15.2436C17.354 13.1333 19.5207 11.5197 21.3002 10.6082C22.1937 10.1506 22.9528 9.88889 23.5359 9.81038C24.0516 9.74095 24.327 9.82524 24.4694 9.92652ZM23.5471 9.09637C21.4764 9.31665 18.0188 11.4648 14.7418 14.7418C11.4651 18.0185 9.31746 21.4759 9.09686 23.5466C6.72245 20.3309 7.40936 15.0488 11.2291 11.2291C15.0489 7.40933 20.3314 6.72189 23.5471 9.09637ZM25.3745 11.1865C27.1622 14.4298 26.3125 19.2293 22.7709 22.7709C19.2294 26.3124 14.4303 27.1617 11.1869 25.3741C13.2777 25.0271 16.6026 22.9174 19.76 19.76C22.9176 16.6024 25.0279 13.2771 25.3745 11.1865ZM26.9859 14.51C27.827 17.8972 26.9241 21.6287 24.2764 24.2763C21.6288 26.9239 17.8976 27.8264 14.5105 26.9854C17.4611 27.0997 20.7193 25.8261 23.2727 23.2727C25.8263 20.7192 27.1003 17.4607 26.9859 14.51ZM19.4905 7.01461C16.5396 6.9 13.2809 8.17361 10.7273 10.7273C8.17374 13.2808 6.90065 16.5393 7.0151 19.49C6.17382 16.1028 7.07591 12.3714 9.72364 9.72364C12.3715 7.07581 16.1031 6.17318 19.4905 7.01461Z" fill="#C0C0C0"/>
</g>
<defs>
<clipPath id="clip0_518_113">
<rect width="22" height="22" fill="white" transform="translate(6 6)"/>
</clipPath>
</defs>
</svg>
